<svg width="500" height="500" viewBox="0 0 500 500" fill="none" xmlns="http://www.w3.org/2000/svg">
<g clip-path="url(#clip0_103_2)">
<path d="M250 390.411C327.547 390.411 390.411 327.547 390.411 250C390.411 172.453 327.547 109.589 250 109.589C172.453 109.589 109.589 172.453 109.589 250C109.589 327.547 172.453 390.411 250 390.411Z" fill="white"/>
<path d="M240.011 93.0365H259.989C266.293 93.0365 271.404 87.9258 271.404 81.621V11.4155C271.404 5.11073 266.293 0 259.989 0H240.011C233.707 0 228.596 5.11073 228.596 11.4155V81.621C228.596 87.9258 233.707 93.0365 240.011 93.0365Z" fill="white"/>
<path d="M406.963 240.011V259.989C406.963 266.293 412.074 271.404 418.379 271.404H488.584C494.889 271.404 500 266.293 500 259.989V240.011C500 233.707 494.889 228.596 488.584 228.596H418.379C412.074 228.596 406.963 233.707 406.963 240.011Z" fill="white"/>
<path d="M259.989 500C266.293 500 271.404 494.889 271.404 488.584V418.379C271.404 412.074 266.293 406.963 259.989 406.963H240.011C233.707 406.963 228.596 412.074 228.596 418.379V488.584C228.596 494.889 233.707 500 240.011 500H259.989Z" fill="white"/>
<path d="M11.4155 271.404H81.621C87.9258 271.404 93.0365 266.293 93.0365 259.989V240.011C93.0365 233.707 87.9258 228.596 81.621 228.596H11.4155C5.11073 228.596 0 233.707 0 240.011V259.989C0 266.293 5.11073 271.404 11.4155 271.404Z" fill="white"/>
<path d="M368.053 146.073C372.511 150.531 379.739 150.531 384.197 146.073L433.84 96.4304C438.299 91.9715 438.299 84.7443 433.84 80.2865L419.714 66.1604C415.256 61.7021 408.028 61.7021 403.57 66.1604L353.927 115.803C349.468 120.261 349.468 127.489 353.927 131.947L368.053 146.073Z" fill="white"/>
<path d="M419.713 433.84L433.84 419.713C438.298 415.256 438.298 408.027 433.84 403.57L384.196 353.927C379.737 349.469 372.51 349.469 368.053 353.927L353.926 368.053C349.467 372.511 349.467 379.739 353.926 384.197L403.57 433.84C408.028 438.298 415.256 438.298 419.713 433.84Z" fill="white"/>
<path d="M96.4304 433.84L146.074 384.197C150.533 379.739 150.533 372.51 146.074 368.053L131.948 353.927C127.489 349.469 120.261 349.469 115.804 353.927L66.1604 403.57C61.7021 408.029 61.7021 415.256 66.1604 419.713L80.2865 433.84C84.7443 438.298 91.972 438.298 96.4304 433.84Z" fill="white"/>
<path d="M115.803 146.073C120.261 150.531 127.489 150.531 131.947 146.073L146.073 131.947C150.532 127.489 150.532 120.261 146.073 115.803L96.4298 66.1604C91.9714 61.7021 84.7437 61.7021 80.2859 66.1604L66.1598 80.2865C61.7015 84.7443 61.7015 91.9726 66.1598 96.4304L115.803 146.073Z" fill="white"/>
</g>
<defs>
<clipPath id="clip0_103_2">
<rect width="500" height="500" fill="white"/>
</clipPath>
</defs>
</svg>
